<svg width="28" height="28" viewBox="0 0 28 28" fill="none" xmlns="http://www.w3.org/2000/svg">
<path d="M5.7832 10.5078H22.21C22.6494 10.5078 23.0098 10.1475 23.0098 9.70801C23.0098 9.26855 22.6494 8.91699 22.21 8.91699H5.7832C5.34375 8.91699 4.99219 9.26855 4.99219 9.70801C4.99219 10.1387 5.34375 10.5078 5.7832 10.5078ZM5.7832 14.4629H22.21C22.6494 14.4629 23.0098 14.1025 23.0098 13.6719C23.0098 13.2236 22.6494 12.8633 22.21 12.8633H5.7832C5.34375 12.8633 4.99219 13.2236 4.99219 13.6719C4.99219 14.1025 5.34375 14.4629 5.7832 14.4629ZM5.7832 18.4268H22.21C22.6494 18.4268 23.0098 18.0664 23.0098 17.6182C23.0098 17.1787 22.6494 16.8271 22.21 16.8271H5.7832C5.34375 16.8271 4.99219 17.1875 4.99219 17.6182C4.99219 18.0576 5.34375 18.4268 5.7832 18.4268Z" fill="black"/>
</svg>
