<svg width="24" height="24" viewBox="0 0 24 24" fill="none" xmlns="http://www.w3.org/2000/svg">
<path d="M6.30887 16.4938C5.49526 16.4938 4.88002 16.2879 4.46317 15.876C4.04632 15.4642 3.83789 14.854 3.83789 14.0454V6.36879C3.83789 5.5602 4.04632 4.94999 4.46317 4.53816C4.88002 4.12633 5.49526 3.92041 6.30887 3.92041H13.9403C14.7539 3.92041 15.3691 4.12884 15.786 4.54569C16.2028 4.95752 16.4113 5.56522 16.4113 6.36879V8.13916H14.9272V6.49686C14.9272 6.13023 14.8343 5.85652 14.6484 5.67571C14.4626 5.48989 14.1964 5.39697 13.8499 5.39697H6.39927C6.04771 5.39697 5.77902 5.48989 5.59319 5.67571C5.41239 5.85652 5.32199 6.13023 5.32199 6.49686V13.9173C5.32199 14.284 5.41239 14.5602 5.59319 14.746C5.77902 14.9268 6.04771 15.0172 6.39927 15.0172H8.32031V16.4938H6.30887ZM10.0605 20.0797C9.24693 20.0797 8.6317 19.8738 8.21484 19.462C7.79799 19.0502 7.58956 18.4399 7.58956 17.6313V9.9472C7.58956 9.14362 7.79799 8.53592 8.21484 8.12409C8.6317 7.70724 9.24693 7.49881 10.0605 7.49881H17.692C18.5056 7.49881 19.1208 7.70724 19.5377 8.12409C19.9545 8.54095 20.1629 9.14865 20.1629 9.9472V17.6313C20.1629 18.4349 19.9545 19.0426 19.5377 19.4545C19.1208 19.8713 18.5056 20.0797 17.692 20.0797H10.0605ZM10.1509 18.6032H17.6016C17.9481 18.6032 18.2143 18.5103 18.4001 18.3244C18.5859 18.1436 18.6789 17.8699 18.6789 17.5033V10.0828C18.6789 9.71617 18.5859 9.44245 18.4001 9.26165C18.2143 9.07582 17.9481 8.98291 17.6016 8.98291H10.1509C9.79939 8.98291 9.53069 9.07582 9.34487 9.26165C9.15904 9.44245 9.06613 9.71617 9.06613 10.0828V17.5033C9.06613 17.8699 9.15904 18.1436 9.34487 18.3244C9.53069 18.5103 9.79939 18.6032 10.1509 18.6032Z" fill="#3C3C43" fill-opacity="0.3"/>
</svg>
