<svg width="40" height="40" viewBox="0 0 40 40" fill="none" xmlns="http://www.w3.org/2000/svg">
<path d="M33.1717 21.1368C32.767 20.3897 32.16 19.7671 31.3351 19.2846C30.5258 18.7866 29.5141 18.413 28.3001 18.1484L25.1405 17.4792C24.3156 17.308 23.6775 17.1056 23.2106 16.8877C22.7437 16.6543 22.4168 16.3897 22.2145 16.094C22.0277 15.7827 21.9188 15.4091 21.9188 14.9733C21.9188 14.413 22.0588 13.9461 22.3546 13.557C22.6503 13.1679 23.0705 12.8722 23.6308 12.6698C24.1911 12.4675 24.8448 12.3586 25.623 12.3586C26.4635 12.3586 27.1795 12.4831 27.7709 12.7165C28.3623 12.95 28.8293 13.308 29.1561 13.7593C29.483 14.2263 29.6853 14.7866 29.7476 15.4558H33.0627C32.9693 14.2107 32.6269 13.1523 32.0199 12.2807C31.4285 11.4091 30.588 10.7554 29.5141 10.3197C28.4402 9.86829 27.1795 9.65039 25.6853 9.65039C24.1289 9.65039 22.8059 9.88385 21.732 10.3508C20.6581 10.8177 19.8643 11.4714 19.3351 12.3119C19.3195 12.3274 19.3195 12.343 19.304 12.3586C18.8215 11.5337 18.09 10.88 17.1561 10.4442C16.1756 9.97724 14.9771 9.74378 13.5919 9.74378C12.269 9.74378 11.1172 9.96167 10.1367 10.3975C9.15611 10.8333 8.39347 11.4403 7.86428 12.2185C7.3351 12.9967 7.07051 13.8839 7.07051 14.8955C7.07051 15.5648 7.19502 16.1718 7.44405 16.7321C7.69308 17.2924 8.08218 17.7749 8.62693 18.1951C9.04716 18.522 9.54522 18.7866 10.1211 18.9733C9.37401 19.1134 8.70475 19.3625 8.16 19.6893C7.47518 20.1095 6.96156 20.6387 6.63471 21.308C6.2923 21.9772 6.12109 22.7399 6.12109 23.6115C6.12109 24.7944 6.41681 25.8372 7.02382 26.7399C7.63082 27.6426 8.48685 28.3586 9.59191 28.8566C10.697 29.3547 12.0044 29.6037 13.483 29.6037C15.0083 29.6037 16.3312 29.3391 17.4363 28.8099C18.2612 28.4053 18.946 27.8761 19.5063 27.2224C20.1133 27.9383 20.876 28.5142 21.8254 28.9033C22.9927 29.4014 24.3935 29.6504 26.0433 29.6504C27.7553 29.6504 29.2028 29.4014 30.3546 28.8877C31.5219 28.3741 32.3779 27.6737 32.9382 26.7866C33.4985 25.8994 33.7787 24.8722 33.7787 23.7204C33.7787 22.7554 33.5763 21.8839 33.1717 21.1368ZM29.9032 25.5103C29.5919 25.9461 29.125 26.2885 28.5024 26.522C27.8798 26.7554 27.1016 26.8644 26.1678 26.8644C25.1872 26.8644 24.3468 26.7243 23.6619 26.4597C22.9771 26.1796 22.4479 25.7593 22.0588 25.1835C21.6697 24.6076 21.4363 23.8605 21.374 22.9578H21.0316H17.7631C17.7164 23.8138 17.5297 24.5298 17.2028 25.1056C16.876 25.6815 16.3935 26.1018 15.7865 26.3975C15.1795 26.6776 14.4168 26.8177 13.5297 26.8177C12.6425 26.8177 11.911 26.6776 11.304 26.4286C10.697 26.164 10.2456 25.7749 9.94989 25.2924C9.6386 24.7944 9.49853 24.2185 9.49853 23.5492C9.49853 22.9111 9.6386 22.3508 9.90319 21.915C10.1834 21.4636 10.588 21.1212 11.1328 20.8877C11.6775 20.6543 12.3623 20.5298 13.1872 20.5298H15.0238V17.9305H13.5919C12.8604 17.9305 12.2534 17.8216 11.7553 17.6193C11.2573 17.4014 10.8993 17.1056 10.6503 16.701C10.4012 16.2963 10.2923 15.8138 10.2923 15.2379C10.2923 14.6309 10.4168 14.1329 10.6814 13.7126C10.9304 13.308 11.3195 12.9967 11.8176 12.7788C12.3156 12.5609 12.9382 12.4675 13.6697 12.4675C14.4168 12.4675 15.0238 12.5765 15.5063 12.8099C15.9888 13.0278 16.3623 13.3858 16.6114 13.8839C16.8604 14.3663 17.016 15.0045 17.0627 15.7983H18.5569C18.6191 16.5609 18.837 17.2146 19.195 17.7749C19.6464 18.4597 20.2534 19.0045 21.0316 19.4091C21.8098 19.8138 22.7592 20.1407 23.8487 20.3741L26.8993 21.0278C27.7242 21.199 28.3779 21.4169 28.876 21.666C29.374 21.915 29.7476 22.2263 29.9655 22.5998C30.1989 22.9578 30.3079 23.4091 30.3079 23.9228C30.3701 24.5453 30.2145 25.0745 29.9032 25.5103Z" fill="black"/>
<path d="M35.3402 9.92777C35.8522 9.92777 36.2836 10.0984 36.6344 10.4398C36.9804 10.7811 37.1535 11.1983 37.1535 11.6913C37.1535 12.1796 36.9804 12.5944 36.6344 12.9357C36.2836 13.277 35.8522 13.4477 35.3402 13.4477C34.8329 13.4477 34.4039 13.277 34.0531 12.9357C33.7023 12.5944 33.5269 12.1796 33.5269 11.6913C33.5269 11.1983 33.7023 10.7811 34.0531 10.4398C34.4039 10.0984 34.8329 9.92777 35.3402 9.92777ZM35.3402 13.0637C35.7479 13.0637 36.0845 12.9333 36.3499 12.6726C36.6154 12.4071 36.7481 12.08 36.7481 11.6913C36.7481 11.2978 36.6154 10.9683 36.3499 10.7029C36.075 10.4374 35.7384 10.3047 35.3402 10.3047C34.9467 10.3047 34.6125 10.4374 34.3376 10.7029C34.0673 10.9636 33.9322 11.2931 33.9322 11.6913C33.9322 12.08 34.0673 12.4047 34.3376 12.6655C34.6125 12.9309 34.9467 13.0637 35.3402 13.0637ZM36.0726 12.0824L36.0939 12.3313C36.1034 12.445 36.1295 12.528 36.1722 12.5801H35.7384C35.7052 12.5327 35.6839 12.4498 35.6744 12.3313L35.6602 12.1393C35.6507 12.0492 35.6294 11.9876 35.5962 11.9544C35.5677 11.9212 35.5132 11.9046 35.4326 11.9046H35.0486V12.5801H34.6362V10.7597H35.4611C35.6649 10.7597 35.8237 10.8072 35.9375 10.902C36.056 10.992 36.1153 11.12 36.1153 11.286C36.1153 11.4898 36.0299 11.6296 35.8593 11.7055C35.9968 11.7719 36.0679 11.8975 36.0726 12.0824ZM35.0486 11.1153V11.5633H35.4397C35.6057 11.5633 35.6886 11.4874 35.6886 11.3357C35.6886 11.1888 35.6009 11.1153 35.4255 11.1153H35.0486Z" fill="black"/>
</svg>
